<?xml version="1.0" encoding="UTF-8"?>
<svg width="36px" height="36px" viewBox="0 0 36 36" version="1.1" xmlns="http://www.w3.org/2000/svg" xmlns:xlink="http://www.w3.org/1999/xlink">
    <!-- Generator: Sketch 48.2 (47327) - http://www.bohemiancoding.com/sketch -->
    <title>login-logo</title>
    <desc>Created with Sketch.</desc>
    <defs></defs>
    <g id="Desktop-HD" stroke="none" stroke-width="1" fill="none" fill-rule="evenodd" transform="translate(-275.000000, -41.000000)">
        <g id="Group-2" transform="translate(275.000000, 41.000000)" fill="#000000">
            <path d="M32.182,0.0110638298 C34.2908,0.0119148936 35.9992,1.82851064 36,4.07276596 L36,27.5829787 L35.9924,27.6212766 C35.97,29.8331915 34.2916,31.6165957 32.2116,31.6374468 L32.182,31.6438298 L22.3648,31.6438298 C21.5636,31.6442553 20.8752,31.9604255 20.392,32.4404255 C19.9096,32.9255319 19.64,33.5395745 19.6376,34.2434043 L19.6376,34.2438298 C19.6376,35.2051064 18.9048,35.9846809 18.0012,35.9846809 C17.3204,35.9846809 16.7384,35.5417021 16.492,34.912766 C16.4088,34.7038298 16.362,34.4740426 16.362,34.232766 L16.362,34.2280851 C16.3556,33.5387234 16.088,32.926383 15.6048,32.4421277 C15.1172,31.9595745 14.4244,31.6438298 13.6384,31.6438298 L3.8212,31.6438298 L3.8212,31.6442553 L3.7872,31.6370213 C1.6924,31.6178723 0.0008,29.8114894 0,27.5795745 L0.0032,27.5629787 L0.0032,4.07829787 L0,4.0612766 C0.0008,1.81914894 1.7064,0.00382978723 3.8124,0.00085106383 L3.818,0 L11.4532,0 C13.6756,0 15.7108,0.894468085 17.1976,2.3706383 C17.4944,2.66425532 17.7516,2.99914894 18.0024,3.33914894 C18.2512,3.00255319 18.5056,2.66978723 18.7996,2.37914894 C20.2864,0.902978723 22.3224,0.0106382979 24.5464,0.0110638298 L32.1792,0.0114893617 L32.182,0.0110638298 Z M11.8624,7.10851064 C12.766,7.10851064 13.4988,7.88765957 13.4988,8.8493617 C13.4988,9.8106383 12.766,10.5902128 11.8624,10.5902128 L7.772,10.5902128 C6.868,10.5902128 6.1356,9.81021277 6.1356,8.8493617 C6.1356,7.88765957 6.8684,7.10851064 7.772,7.10851064 L11.8624,7.10851064 Z M11.8624,14.0902128 C12.766,14.0902128 13.4988,14.8689362 13.4988,15.8310638 C13.4988,16.7923404 12.766,17.5719149 11.8624,17.5719149 L7.772,17.5719149 C6.868,17.5719149 6.1356,16.7919149 6.1356,15.8310638 C6.1356,14.8693617 6.8684,14.0902128 7.772,14.0902128 L11.8624,14.0902128 Z M11.8624,21.0714894 C12.766,21.0714894 13.4988,21.8506383 13.4988,22.8123404 C13.4988,23.773617 12.766,24.5531915 11.8624,24.5531915 L7.772,24.5531915 C6.868,24.5531915 6.1356,23.7731915 6.1356,22.8123404 C6.1356,21.8506383 6.8684,21.0714894 7.772,21.0714894 L11.8624,21.0714894 Z M13.6384,28.1629787 C14.6168,28.1629787 15.536,28.4251064 16.3628,28.853617 L16.3628,8.23829787 C16.3612,6.95574468 15.8476,5.79702128 14.9656,4.91574468 C14.0832,4.04042553 12.846,3.48042553 11.454,3.48042553 L3.8184,3.48042553 L3.8184,3.48085106 L3.8176,3.48085106 C3.518,3.48255319 3.2756,3.74 3.2736,4.05957447 L3.276,4.07276596 L3.276,27.5825532 L3.2752,27.5859574 C3.2796,27.9017021 3.52,28.1582979 3.818,28.1595745 L3.818,28.16 L3.8312,28.1629787 L13.6384,28.1629787 Z M24.1344,10.5902128 C23.2304,10.5902128 22.498,9.81021277 22.498,8.8493617 C22.498,7.88765957 23.2308,7.10851064 24.1344,7.10851064 L28.2248,7.10851064 C29.1284,7.10851064 29.8612,7.88765957 29.8612,8.8493617 C29.8612,9.8106383 29.1284,10.5902128 28.2248,10.5902128 L24.1344,10.5902128 Z M28.2248,14.0902128 C29.1284,14.0902128 29.8608,14.8689362 29.8612,15.8310638 C29.8612,16.7923404 29.1284,17.5719149 28.2248,17.5719149 L24.1344,17.5719149 C23.2304,17.5719149 22.498,16.7919149 22.498,15.8310638 C22.498,14.8693617 23.2308,14.0902128 24.1344,14.0902128 L28.2248,14.0902128 Z M28.2248,21.0714894 C29.1284,21.0714894 29.8608,21.8506383 29.8612,22.8123404 C29.8612,23.773617 29.1284,24.5531915 28.2248,24.5531915 L24.1344,24.5531915 C23.2304,24.5531915 22.498,23.7731915 22.498,22.8123404 C22.498,21.8506383 23.2308,21.0714894 24.1344,21.0714894 L28.2248,21.0714894 Z M19.6348,28.8523404 C20.462,28.4238298 21.3832,28.1625532 22.3656,28.1634043 L32.1612,28.1638298 L32.1796,28.16 C32.48,28.1587234 32.7244,27.8987234 32.7252,27.5795745 L32.7284,27.5629787 L32.7284,4.07276596 C32.7276,3.75191489 32.4836,3.49319149 32.1828,3.49191489 L32.1828,3.49234043 L32.18,3.49191489 L24.5468,3.49191489 C23.1488,3.49234043 21.9128,4.0506383 21.0324,4.92425532 C20.1528,5.80297872 19.64,6.96 19.638,8.24978723 L19.6348,8.26680851 L19.6348,28.8523404 Z" id="login-logo"></path>
        </g>
    </g>
</svg>